<?xml version="1.0"?>
<svg xmlns="http://www.w3.org/2000/svg" xmlns:xlink="http://www.w3.org/1999/xlink" version="1.1" id="Capa_1" x="0px" y="0px" viewBox="0 0 511.999 511.999" style="enable-background:new 0 0 511.999 511.999;" xml:space="preserve" width="512px" height="512px" class=""><g><circle style="fill:#E1E1D8" cx="255.999" cy="256" r="246" data-original="#EFE89A" class="" data-old_color="#DFDFD4"/><path d="M255.999,511.999c-68.38,0-132.667-26.628-181.019-74.981C26.63,388.666,0,324.379,0,255.999S26.628,123.332,74.98,74.98  S187.619,0,255.999,0s132.667,26.628,181.019,74.98s74.98,112.639,74.98,181.019s-26.629,132.667-74.98,181.019  C388.667,485.371,324.379,511.999,255.999,511.999z M255.999,20C125.87,20,20,125.869,20,255.999s105.869,236,235.999,236  s235.999-105.869,235.999-236S386.129,20,255.999,20z" data-original="#000000" class=""/><path d="M252.99,60.08c-2.631,0-5.21-1.07-7.07-2.93c-0.46-0.46-0.88-0.97-1.24-1.52c-0.36-0.54-0.67-1.12-0.92-1.73  c-0.25-0.6-0.45-1.23-0.57-1.87c-0.13-0.64-0.199-1.3-0.199-1.95c0-2.64,1.069-5.211,2.93-7.07c0.46-0.46,0.97-0.88,1.52-1.25  c0.54-0.36,1.12-0.67,1.73-0.92c0.6-0.25,1.23-0.44,1.87-0.57c1.29-0.26,2.62-0.26,3.91,0c0.63,0.13,1.26,0.32,1.869,0.57  c0.601,0.25,1.181,0.56,1.721,0.92c0.55,0.37,1.06,0.79,1.52,1.25s0.88,0.97,1.25,1.52c0.36,0.54,0.67,1.12,0.92,1.72  c0.25,0.61,0.44,1.24,0.561,1.87c0.13,0.65,0.2,1.31,0.2,1.96c0,0.65-0.07,1.31-0.2,1.95c-0.12,0.64-0.311,1.27-0.561,1.87  c-0.25,0.61-0.56,1.19-0.92,1.73c-0.37,0.55-0.79,1.06-1.25,1.52s-0.97,0.88-1.52,1.24c-0.54,0.36-1.12,0.67-1.721,0.92  c-0.609,0.25-1.239,0.44-1.869,0.57C254.298,60.009,253.639,60.08,252.99,60.08z" data-original="#000000" class=""/><path style="fill:#E1E1D8" d="M461.943,255.999c0,113.558-92.386,205.943-205.943,205.943S50.056,369.557,50.056,255.999  c0-96.763,67.079-178.153,157.178-200.111" data-original="#EFE89A" class="" data-old_color="#DFDFD4"/><path d="M255.999,471.943c-119.071,0-215.943-96.872-215.943-215.943c0-49.305,16.245-95.758,46.98-134.338  c29.817-37.428,71.663-64.237,117.829-75.488c5.375-1.307,10.776,1.983,12.084,7.348c1.308,5.366-1.982,10.775-7.348,12.083  C121.551,87.063,60.056,165.356,60.056,255.999c0,108.044,87.9,195.943,195.943,195.943s195.943-87.9,195.943-195.943  c0-5.523,4.478-10,10-10s10,4.477,10,10C471.943,375.071,375.071,471.943,255.999,471.943z" data-original="#000000" class=""/><path style="fill:#FB8450" d="M300.004,428.848c14.858-5.398,26.351-16.426,32.097-30.472c2.96,0.406,6.036,0.697,9.112,0.697  c19.792,0,38.307-9.461,49.451-25.248c14.162-20.024,13.524-46.259,0-65.587c20.257-9.461,33.722-29.369,33.722-52.179  c0-24.029-15.265-44.866-37.03-53.63c10.737-14.917,13.466-34.709,5.978-52.237c-12.189-26.002-35.87-35.985-59.783-33.141  c-8.532-22.868-27.744-36.45-53.05-37.263c-3.899,0-8.798,1.103-13.596,2.571c-11.144,3.41-18.733,13.73-18.418,25.384V405.34  c-0.316,12.768,8.729,23.946,21.314,26.1C278.903,432.995,288.928,432.239,300.004,428.848z" data-original="#F0A473" class="" data-old_color="#F9834F"/><path style="fill:#48A9F9" d="M248.488,405.339v-75.737c-3.33,0.457-6.722,0.718-10.178,0.718c-41.046,0-74.32-33.274-74.32-74.32  s33.274-74.32,74.32-74.32c3.455,0,6.848,0.261,10.178,0.718v-74.656c-0.022-0.822,0.005-1.634,0.06-2.441h-32.825l-8.587,36.738  c-9.67,2.639-18.848,6.471-27.361,11.337l-32.053-19.908l-31.943,31.943l19.909,32.054c-4.866,8.512-8.698,17.69-11.337,27.361  l-36.739,8.587v45.175l36.739,8.587c2.639,9.67,6.471,18.848,11.337,27.361l-19.909,32.054l31.943,31.943l32.054-19.909  c8.512,4.866,17.69,8.698,27.36,11.337l8.587,36.738h32.793C248.503,406.245,248.477,405.796,248.488,405.339z" data-original="#085CA8" class="" data-old_color="#47A8F8"/><path style="fill:#4FC5DF" d="M248.488,182.398c-3.33-0.457-6.722-0.718-10.178-0.718c-41.046,0-74.32,33.274-74.32,74.32  s33.274,74.32,74.32,74.32c3.456,0,6.848-0.261,10.178-0.718V182.398z" data-original="#4FC5DF" class="active-path"/><path d="M290.363,315.8c-2.56,0-5.118-0.976-7.071-2.929c-6.75-6.751-10.469-15.726-10.469-25.273  c0-9.546,3.718-18.522,10.469-25.273c13.936-13.934,36.61-13.935,50.546,0c3.905,3.905,3.905,10.237,0,14.142  c-3.904,3.905-10.236,3.906-14.143,0.001c-6.136-6.136-16.123-6.138-22.261,0c-2.974,2.973-4.611,6.926-4.611,11.13  c0,4.205,1.638,8.158,4.611,11.13c3.905,3.905,3.905,10.237,0,14.142C295.482,314.823,292.922,315.8,290.363,315.8z" data-original="#000000" class=""/><path d="M290.363,204.646c-2.56,0-5.118-0.976-7.071-2.929c-6.75-6.75-10.469-15.726-10.469-25.273  c0-9.546,3.718-18.522,10.469-25.273c13.936-13.934,36.61-13.935,50.546,0c3.905,3.905,3.905,10.237,0,14.143  c-3.906,3.905-10.236,3.905-14.143,0c-6.136-6.137-16.123-6.138-22.261,0c-2.974,2.973-4.611,6.926-4.611,11.13  s1.638,8.158,4.611,11.13c3.905,3.905,3.905,10.237,0,14.142C295.482,203.669,292.922,204.646,290.363,204.646z" data-original="#000000" class=""/><path d="M434.387,256.059c0-23.837-12.654-45.491-33.023-57.785c7.695-16.289,8.281-35.356,1.167-52.011  c-0.046-0.106-0.093-0.211-0.142-0.316c-12.022-25.648-35.028-39.97-62.47-39.365c-11.143-22.64-32.299-35.93-59.096-36.79  c-0.107-0.004-0.214-0.005-0.321-0.005c-4.502,0-9.905,0.984-16.522,3.008c-11.188,3.423-19.771,11.968-23.486,22.506h-24.771  c-4.647,0-8.68,3.2-9.737,7.724l-7.268,31.094c-6.39,2.074-12.609,4.651-18.591,7.703l-27.129-16.85  c-3.945-2.449-9.061-1.861-12.348,1.424l-31.943,31.943c-3.285,3.286-3.875,8.401-1.424,12.348l16.851,27.128  c-3.053,5.982-5.63,12.202-7.703,18.591l-31.096,7.268c-4.523,1.057-7.724,5.091-7.724,9.737v45.175c0,4.646,3.2,8.68,7.724,9.737  l31.096,7.268c2.073,6.389,4.65,12.609,7.703,18.591l-16.851,27.128c-2.451,3.947-1.861,9.062,1.424,12.348l31.943,31.943  c3.286,3.286,8.402,3.875,12.348,1.423l27.129-16.85c5.981,3.052,12.201,5.629,18.591,7.703l7.268,31.094  c1.058,4.524,5.091,7.724,9.737,7.724h24.414c3.948,12.495,14.594,22.307,27.98,24.598c3.55,0.607,7.196,0.91,10.93,0.91  c7.635,0,15.63-1.268,23.886-3.796c0.163-0.05,0.326-0.104,0.487-0.163c14.858-5.398,27.155-15.862,34.645-29.255  c1.08,0.054,2.128,0.081,3.149,0.081c23.05,0,44.591-11.021,57.615-29.474c14.106-19.945,15.96-45.962,5.556-67.642  C423.124,299.429,434.387,278.835,434.387,256.059z M238.488,320.319c-0.059,0-0.119,0.001-0.178,0.001  c-1.662,0-3.311-0.063-4.942-0.188c-0.272-0.021-0.543-0.043-0.814-0.067c-1.083-0.097-2.16-0.22-3.227-0.37  c-0.4-0.056-0.8-0.116-1.198-0.18c-1.061-0.169-2.114-0.365-3.158-0.586c-2.609-0.552-5.16-1.263-7.642-2.122  c-0.124-0.043-0.248-0.086-0.372-0.13c-24.384-8.606-42.074-31.52-42.935-58.607c-0.013-0.413-0.022-0.826-0.028-1.24  c-0.004-0.276-0.005-0.553-0.005-0.83c0-0.277,0.002-0.554,0.005-0.83c0.005-0.414,0.015-0.828,0.028-1.24  c0.861-27.087,18.551-50.001,42.935-58.607c0.124-0.044,0.248-0.087,0.372-0.13c2.482-0.859,5.033-1.57,7.642-2.122  c1.044-0.221,2.096-0.417,3.158-0.586c0.398-0.064,0.797-0.123,1.198-0.18c1.068-0.15,2.144-0.273,3.227-0.37  c0.271-0.024,0.542-0.046,0.814-0.067c1.631-0.124,3.279-0.188,4.942-0.188c0.059,0,0.119,0.001,0.178,0.001V320.319z   M238.488,171.68h-0.178c-46.494,0-84.32,37.826-84.32,84.32s37.826,84.32,84.32,84.32h0.178v56.378h-14.833l-6.782-29.014  c-0.835-3.575-3.563-6.405-7.104-7.371c-8.744-2.387-17.166-5.876-25.031-10.372c-3.187-1.823-7.118-1.751-10.238,0.187  l-25.315,15.723l-20.726-20.725l15.725-25.316c1.938-3.12,2.009-7.051,0.187-10.239c-4.496-7.865-7.985-16.287-10.371-25.03  c-0.967-3.542-3.796-6.269-7.371-7.105l-29.016-6.781v-29.311l29.016-6.781c3.575-0.836,6.404-3.564,7.371-7.106  c2.386-8.744,5.875-17.165,10.371-25.03c1.822-3.188,1.751-7.119-0.187-10.239l-15.725-25.315l20.726-20.725l25.315,15.723  c3.122,1.938,7.052,2.009,10.238,0.187c7.865-4.496,16.287-7.985,25.031-10.372c3.542-0.966,6.27-3.796,7.104-7.371l6.782-29.014  h14.833L238.488,171.68L238.488,171.68z M391.631,296.375c-12.39-7.503-28.766-5.928-39.435,4.742  c-6.087,6.087-9.439,14.181-9.439,22.789s3.353,16.702,9.439,22.789c1.953,1.953,4.512,2.929,7.071,2.929  c2.559,0,5.119-0.977,7.071-2.929c3.905-3.905,3.905-10.237,0-14.142c-2.31-2.309-3.582-5.38-3.582-8.646s1.272-6.337,3.582-8.646  c4.559-4.559,11.884-4.715,16.68-0.489c10.835,16.179,10.664,37.467-0.524,53.287c-9.288,13.159-24.721,21.015-41.281,21.015  c-0.122,0-0.246-0.001-0.37-0.002c-4.145-15.001-18.061-26.06-34.541-26.06c-5.522,0-10,4.477-10,10s4.478,10,10,10  c8.075,0,14.753,5.921,15.687,13.534c-4.928,10.567-13.786,18.618-25.163,22.817c-9.183,2.778-17.705,3.525-25.337,2.219  c-7.151-1.223-12.52-7.375-12.977-14.602c0.005-0.187,0.006-0.374,0.001-0.562l-0.016-0.458c-0.005-0.126-0.011-0.251-0.012-0.377  c0.002-0.081,0.003-0.162,0.003-0.243V107.742c0-0.091-0.001-0.182-0.004-0.273c0-0.005,0-0.01,0-0.015  c-0.002-0.063-0.002-0.126-0.003-0.19c-0.003-0.378,0.012-0.801,0.044-1.285c0.007-0.097,0.011-0.193,0.015-0.29  c0.564-6.327,5.004-11.845,11.292-13.768c5.871-1.796,9.079-2.114,10.531-2.132c21.134,0.738,36.692,11.656,43.819,30.757  c1.613,4.321,5.972,6.984,10.55,6.435c22.036-2.62,40.042,7.328,49.472,27.296c4.593,10.876,4.377,23.263-0.293,34.071  c-11.669-4.787-25.599-2.45-35.062,7.012c-12.565,12.566-12.565,33.012,0,45.578c1.953,1.953,4.512,2.929,7.071,2.929  c2.559,0,5.118-0.976,7.071-2.929c3.905-3.905,3.905-10.237,0-14.143c-4.768-4.767-4.768-12.525,0-17.293  c4.767-4.77,12.527-4.769,17.293-0.002c0.011,0.011,0.023,0.022,0.034,0.033c0.01,0.01,0.021,0.02,0.031,0.03  c0.056,0.055,0.112,0.109,0.169,0.162c0.01,0.009,0.02,0.019,0.03,0.028c0.06,0.056,0.121,0.111,0.182,0.165  c0.005,0.005,0.01,0.009,0.016,0.014c0.914,0.806,1.939,1.418,3.022,1.833c18.606,7.557,30.619,24.927,30.619,44.294  C414.387,272.66,405.801,287.641,391.631,296.375z" data-original="#000000" class=""/></g> </svg>
