<?xml version="1.0" encoding="iso-8859-1"?>
<!-- Generator: Adobe Illustrator 19.0.0, SVG Export Plug-In . SVG Version: 6.00 Build 0)  -->
<svg version="1.1" id="Capa_1" xmlns="http://www.w3.org/2000/svg" xmlns:xlink="http://www.w3.org/1999/xlink" x="0px" y="0px"
	 viewBox="0 0 416.427 416.427" style="enable-background:new 0 0 416.427 416.427;" xml:space="preserve">
<g>
	<ellipse style="fill:#00E7FF;" cx="211.627" cy="395.947" rx="109.227" ry="13.653"/>
	<path style="fill:#00E7FF;" d="M211.627,416.427c-29.454,0-57.18-1.44-78.08-4.053c-28.041-3.504-37.973-7.803-37.973-16.427
		c0-8.624,9.933-12.923,37.973-16.427c20.9-2.613,48.626-4.053,78.08-4.053s57.18,1.44,78.08,4.053
		c28.041,3.504,37.973,7.803,37.973,16.427c0,8.624-9.933,12.923-37.973,16.427C268.807,414.986,241.08,416.427,211.627,416.427z
		 M117.434,395.947c15.727,3.459,49.067,6.827,94.193,6.827s78.467-3.367,94.193-6.827c-15.727-3.459-49.067-6.827-94.193-6.827
		S133.159,392.487,117.434,395.947z M315.273,399.154h0.067H315.273z"/>
</g>
<path style="fill:#FFFFFF;" d="M402.773,201.387c0-107.452-87.108-194.56-194.56-194.56s-194.56,87.108-194.56,194.56
	s87.108,194.56,194.56,194.56c94.93,0,173.979-67.987,191.116-157.925"/>
<path style="fill:#602F75;" d="M208.213,402.773c-111.046,0-201.387-90.341-201.387-201.387S97.167,0,208.213,0
	S409.6,90.341,409.6,201.387c0,3.77-3.053,6.827-6.827,6.827s-6.827-3.057-6.827-6.827c0-103.516-84.221-187.733-187.733-187.733
	S20.48,97.871,20.48,201.387S104.701,389.12,208.213,389.12c90.033,0,167.586-64.084,184.407-152.376
	c0.707-3.703,4.214-6.144,7.987-5.431c3.7,0.707,6.134,4.28,5.427,7.984C387.987,334.024,304.794,402.773,208.213,402.773z"/>
<g>
	<path style="fill:#EA3457;" d="M208.213,341.333c-77.167,0-139.947-62.78-139.947-139.947S131.046,61.44,208.213,61.44
		S348.16,124.22,348.16,201.387S285.38,341.333,208.213,341.333z M208.213,88.747c-62.107,0-112.64,50.529-112.64,112.64
		s50.533,112.64,112.64,112.64s112.64-50.529,112.64-112.64S270.321,88.747,208.213,88.747z"/>
	<path style="fill:#EA3457;" d="M208.213,348.16c-80.934,0-146.773-65.843-146.773-146.773S127.28,54.613,208.213,54.613
		s146.773,65.843,146.773,146.773S289.147,348.16,208.213,348.16z M208.213,68.267c-73.4,0-133.12,59.716-133.12,133.12
		s59.72,133.12,133.12,133.12s133.12-59.716,133.12-133.12S281.614,68.267,208.213,68.267z M208.213,320.853
		c-65.874,0-119.467-53.593-119.467-119.467S142.339,81.92,208.213,81.92S327.68,135.513,327.68,201.387
		S274.087,320.853,208.213,320.853z M208.213,95.573c-58.348,0-105.813,47.466-105.813,105.813S149.866,307.2,208.213,307.2
		s105.813-47.466,105.813-105.813S266.561,95.573,208.213,95.573z"/>
</g>
<g>
</g>
<g>
</g>
<g>
</g>
<g>
</g>
<g>
</g>
<g>
</g>
<g>
</g>
<g>
</g>
<g>
</g>
<g>
</g>
<g>
</g>
<g>
</g>
<g>
</g>
<g>
</g>
<g>
</g>
</svg>
